0
SECTION
2
HEADER
9
$INSUNITS
70
4
9
$ACADVER
1
AC1014
9
$HANDSEED
5
FFFF
0
ENDSEC
0
SECTION
2
TABLES
0
TABLE
2
VPORT
5
8
100
AcDbSymbolTable
0
ENDTAB
0
TABLE
2
LTYPE
5
5
100
AcDbSymbolTable
0
LTYPE
5
14
100
AcDbSymbolTableRecord
100
AcDbLinetypeTableRecord
2
BYBLOCK
70
0
0
LTYPE
5
15
100
AcDbSymbolTableRecord
100
AcDbLinetypeTableRecord
2
BYLAYER
70
0
0
ENDTAB
0
TABLE
2
LAYER
5
2
100
AcDbSymbolTable
70
2
0
LAYER
5
50
100
AcDbSymbolTableRecord
100
AcDbLayerTableRecord
2
0
70
0
6
CONTINUOUS
0
ENDTAB
0
TABLE
2
STYLE
5
3
100
AcDbSymbolTable
70
1
0
STYLE
5
11
100
AcDbSymbolTableRecord
100
AcDbTextStyleTableRecord
2
STANDARD
70
0
0
ENDTAB
0
TABLE
2
VIEW
5
6
100
AcDbSymbolTable
70
0
0
ENDTAB
0
TABLE
2
UCS
5
7
100
AcDbSymbolTable
70
0
0
ENDTAB
0
TABLE
2
APPID
5
9
100
AcDbSymbolTable
70
2
0
APPID
5
12
100
AcDbSymbolTableRecord
100
AcDbRegAppTableRecord
2
ACAD
70
0
0
ENDTAB
0
TABLE
2
DIMSTYLE
5
A
100
AcDbSymbolTable
70
1
0
ENDTAB
0
TABLE
2
BLOCK_RECORD
5
1
100
AcDbSymbolTable
70
1
0
BLOCK_RECORD
5
1F
100
AcDbSymbolTableRecord
100
AcDbBlockTableRecord
2
*MODEL_SPACE
0
BLOCK_RECORD
5
1B
100
AcDbSymbolTableRecord
100
AcDbBlockTableRecord
2
*PAPER_SPACE
0
ENDTAB
0
ENDSEC
0
SECTION
2
BLOCKS
0
BLOCK
5
20
100
AcDbEntity
100
AcDbBlockBegin
2
*MODEL_SPACE
0
ENDBLK
5
21
100
AcDbEntity
100
AcDbBlockEnd
0
BLOCK
5
1C
100
AcDbEntity
100
AcDbBlockBegin
2
*PAPER_SPACE
0
ENDBLK
5
1D
100
AcDbEntity
100
AcDbBlockEnd
0
ENDSEC
0
SECTION
2
ENTITIES
0
LWPOLYLINE
5
100
100
AcDbEntity
8
0
100
AcDbPolyline
90
4
70
1
43
0.0
10
810.41875000000027
20
195.151022222222
10
829.46875000000023
20
195.151022222222
10
833.94761666666693
20
169.75102222222199
10
805.94023611111072
20
169.75102222222199
0
LINE
5
101
100
AcDbEntity
8
0
100
AcDbLine
10
832.64375000000018
20
1174.6381694444444
30
0
11
842.16875000000016
21
1174.6381694444444
31
0
0
LINE
5
102
100
AcDbEntity
8
0
100
AcDbLine
10
856.45625000000018
20
1174.6381694444444
30
0
11
861.21875000000023
21
1174.6381694444444
31
0
0
LINE
5
103
100
AcDbEntity
8
0
100
AcDbLine
10
669.92500000000018
20
241.18816944444475
30
0
11
765.1750000000003
21
241.18816944444475
31
0
0
LINE
5
104
100
AcDbEntity
8
0
100
AcDbLine
10
207.96250000000001
20
141.17566944444471
30
0
11
298.44999999999999
21
141.17566944444471
31
0
0
LINE
5
105
100
AcDbEntity
8
0
100
AcDbLine
10
842.16875000000016
20
1174.6381694444444
30
0
11
846.9312500000002
21
1174.6381694444444
31
0
0
LINE
5
106
100
AcDbEntity
8
0
100
AcDbLine
10
765.1750000000003
20
245.95066944444471
30
0
11
771.52500000000032
21
245.95102222222192
31
0
0
LINE
5
107
100
AcDbEntity
8
0
100
AcDbLine
10
846.9312500000002
20
1174.6381694444444
30
0
11
856.45625000000018
21
1174.6381694444444
31
0
0
LINE
5
108
100
AcDbEntity
8
0
100
AcDbLine
10
861.21875000000023
20
1174.6381694444444
30
0
11
868.36250000000018
21
1174.6381694444444
31
0
0
LINE
5
109
100
AcDbEntity
8
0
100
AcDbLine
10
175.85548888888897
20
141.17566944444471
30
0
11
189.68755277777788
21
141.17566944444471
31
0
0
LINE
5
110
100
AcDbEntity
8
0
100
AcDbLine
10
765.1750000000003
20
241.18816944444475
30
0
11
765.1750000000003
21
245.95066944444471
31
0
0
LWPOLYLINE
5
111
100
AcDbEntity
8
0
100
AcDbPolyline
90
4
70
1
43
0.0
10
949.92084166666643
20
188.03478888888912
10
924.22697777777796
20
190.28268888888886
10
922.56680555555567
20
209.26036944444445
10
947.47961944444501
20
215.93563055555578
0
LINE
5
112
100
AcDbEntity
8
0
100
AcDbLine
10
0
20
167.12882500000006
30
0
11
0
21
156.56101388888891
31
0
0
LINE
5
113
100
AcDbEntity
8
0
100
AcDbLine
10
771.52500000000032
20
141.176022222222
30
0
11
862.01250000000016
21
141.176022222222
31
0
0
LINE
5
114
100
AcDbEntity
8
0
100
AcDbLine
10
880.28744722222257
20
141.176022222222
30
0
11
894.12162777777803
21
141.176022222222
31
0
0
LINE
5
115
100
AcDbEntity
8
0
100
AcDbLine
10
1069.9742944444445
20
167.12847222222223
30
0
11
1069.9742944444445
21
156.56066111111107
31
0
0
LINE
5
116
100
AcDbEntity
8
0
100
AcDbLine
10
868.36250000000018
20
1179.4006694444445
30
0
11
868.36250000000018
21
1174.6381694444444
31
0
0
LINE
5
117
100
AcDbEntity
8
0
100
AcDbLine
10
642.14375000000007
20
1174.6381694444444
30
0
11
646.90625
21
1174.6381694444444
31
0
0
LINE
5
118
100
AcDbEntity
8
0
100
AcDbLine
10
589.75625000000002
20
1174.6381694444444
30
0
11
599.28125
21
1174.6381694444444
31
0
0
LINE
5
119
100
AcDbEntity
8
0
100
AcDbLine
10
804.06875000000025
20
1174.6381694444444
30
0
11
813.59375000000011
21
1174.6381694444444
31
0
0
LINE
5
120
100
AcDbEntity
8
0
100
AcDbLine
10
917.57500000000027
20
1200.0381694444445
30
0
11
922.33750000000009
21
1200.0381694444445
31
0
0
LINE
5
121
100
AcDbEntity
8
0
100
AcDbLine
10
227.80625000000001
20
1174.6381694444444
30
0
11
223.04374999999999
21
1174.6381694444444
31
0
0
LWPOLYLINE
5
122
100
AcDbEntity
8
0
100
AcDbPolyline
90
4
70
1
43
0.0
10
914.40000000000032
20
1120.6631694444445
10
889.00000000000023
20
1120.6631694444445
10
889.00000000000023
20
1131.7760222222223
10
914.40000000000032
20
1131.7760222222223
0
LINE
5
123
100
AcDbEntity
8
0
100
AcDbLine
10
922.33750000000009
20
1187.3385222222223
30
0
11
928.68750000000023
21
1187.3385222222223
31
0
0
SPLINE
5
124
100
AcDbEntity
8
0
100
AcDbSpline
70
0
71
3
72
8
73
4
74
0
42
0.000000001
43
0.0000000001
44
0.0000000001
40
1
40
1
40
1
40
1
40
2
40
2
40
2
40
2
10
928.68750000000023
20
1187.3385222222223
30
0
10
932.2061055555555
20
1187.3494583333334
30
0
10
935.0262111111108
20
1190.1695638888893
30
0
10
935.03750000000025
20
1193.6885222222222
30
0
0
LINE
5
125
100
AcDbEntity
8
0
100
AcDbLine
10
935.03750000000025
20
1193.6885222222222
30
0
11
935.03750000000025
21
1209.5635222222222
31
0
0
LINE
5
126
100
AcDbEntity
8
0
100
AcDbLine
10
299.24375000000003
20
1174.6381694444444
30
0
11
294.48124999999999
21
1174.6381694444444
31
0
0
LINE
5
127
100
AcDbEntity
8
0
100
AcDbLine
10
584.99374999999998
20
1174.6381694444444
30
0
11
589.75625000000002
21
1174.6381694444444
31
0
0
LINE
5
128
100
AcDbEntity
8
0
100
AcDbLine
10
799.30625000000032
20
1174.6381694444444
30
0
11
804.06875000000025
21
1174.6381694444444
31
0
0
LINE
5
129
100
AcDbEntity
8
0
100
AcDbLine
10
650.875
20
355.48816944444468
30
0
11
534.98749999999995
21
355.48816944444468
31
0
0
LINE
5
130
100
AcDbEntity
8
0
100
AcDbLine
10
556.41875000000005
20
1174.6381694444444
30
0
11
561.18124999999998
21
1174.6381694444444
31
0
0
LINE
5
131
100
AcDbEntity
8
0
100
AcDbLine
10
542.13125000000002
20
1174.6381694444444
30
0
11
546.89374999999995
21
1174.6381694444444
31
0
0
LINE
5
132
100
AcDbEntity
8
0
100
AcDbLine
10
862.01250000000016
20
233.25066944444472
30
0
11
862.01250000000016
21
141.176022222222
31
0
0
LINE
5
133
100
AcDbEntity
8
0
100
AcDbLine
10
570.70624999999995
20
1174.6381694444444
30
0
11
575.46875
21
1174.6381694444444
31
0
0
LWPOLYLINE
5
134
100
AcDbEntity
8
0
100
AcDbPolyline
90
4
70
1
43
0.0
10
122.49538055555546
20
215.93563055555578
10
147.4081944444446
20
209.26036944444445
10
145.74802222222229
20
190.28268888888886
10
120.05415833333323
20
188.03478888888912
0
LINE
5
135
100
AcDbEntity
8
0
100
AcDbLine
10
771.52500000000032
20
141.176022222222
30
0
11
771.52500000000032
21
245.95102222222192
31
0
0
LINE
5
136
100
AcDbEntity
8
0
100
AcDbLine
10
294.48124999999999
20
1174.6381694444444
30
0
11
284.95625000000001
21
1174.6381694444444
31
0
0
LINE
5
137
100
AcDbEntity
8
0
100
AcDbLine
10
561.18124999999998
20
1174.6381694444444
30
0
11
570.70624999999995
21
1174.6381694444444
31
0
0
LINE
5
138
100
AcDbEntity
8
0
100
AcDbLine
10
862.01250000000016
20
245.95102222222192
30
0
11
862.01250000000016
21
233.25066944444472
31
0
0
LINE
5
139
100
AcDbEntity
8
0
100
AcDbLine
10
746.91875000000027
20
1174.6381694444444
30
0
11
756.44375000000025
21
1174.6381694444444
31
0
0
LINE
5
140
100
AcDbEntity
8
0
100
AcDbLine
10
223.04374999999999
20
1174.6381694444444
30
0
11
213.51875000000001
21
1174.6381694444444
31
0
0
LINE
5
141
100
AcDbEntity
8
0
100
AcDbLine
10
917.57500000000027
20
1244.4881694444443
30
0
11
534.98749999999995
21
1244.4881694444443
31
0
0
LINE
5
142
100
AcDbEntity
8
0
100
AcDbLine
10
1062.0375000000001
20
257.85480277777759
30
0
11
1069.9750000000001
21
167.12847222222223
31
0
0
LINE
5
143
100
AcDbEntity
8
0
100
AcDbLine
10
546.89374999999995
20
1174.6381694444444
30
0
11
556.41875000000005
21
1174.6381694444444
31
0
0
LINE
5
144
100
AcDbEntity
8
0
100
AcDbLine
10
669.92500000000018
20
241.18816944444475
30
0
11
534.98749999999995
21
241.18781666666692
31
0
0
LINE
5
145
100
AcDbEntity
8
0
100
AcDbLine
10
308.76875000000001
20
1174.6381694444444
30
0
11
299.24375000000003
21
1174.6381694444444
31
0
0
LINE
5
146
100
AcDbEntity
8
0
100
AcDbLine
10
534.98749999999995
20
1174.6381694444444
30
0
11
542.13125000000002
21
1174.6381694444444
31
0
0
LINE
5
147
100
AcDbEntity
8
0
100
AcDbLine
10
871.12086944444468
20
245.95102222222192
30
0
11
880.28780000000029
21
141.176022222222
31
0
0
LINE
5
148
100
AcDbEntity
8
0
100
AcDbLine
10
1069.9742944444445
20
156.56101388888891
30
0
11
894.12162777777803
21
141.176022222222
31
0
0
LINE
5
149
100
AcDbEntity
8
0
100
AcDbLine
10
784.22500000000025
20
1104.7881694444445
30
0
11
534.98749999999995
21
1104.7881694444445
31
0
0
LWPOLYLINE
5
150
100
AcDbEntity
8
0
100
AcDbPolyline
90
4
70
1
43
0.0
10
932.39484166666625
20
517.41352222222201
10
960.40222222222246
20
517.41352222222201
10
955.92370833333291
20
542.81352222222199
10
936.8733555555558
20
542.81352222222199
0
LINE
5
151
100
AcDbEntity
8
0
100
AcDbLine
10
304.80000000000001
20
245.95066944444471
30
0
11
298.44999999999999
21
245.95102222222192
31
0
0
LINE
5
152
100
AcDbEntity
8
0
100
AcDbLine
10
771.52500000000032
20
245.95102222222192
30
0
11
861.5958694444447
21
245.95102222222192
31
0
0
LINE
5
153
100
AcDbEntity
8
0
100
AcDbLine
10
917.57500000000027
20
1219.0885222222223
30
0
11
917.57500000000027
21
1200.0385222222221
31
0
0
LINE
5
154
100
AcDbEntity
8
0
100
AcDbLine
10
575.46875
20
1174.6381694444444
30
0
11
584.99374999999998
21
1174.6381694444444
31
0
0
LINE
5
155
100
AcDbEntity
8
0
100
AcDbLine
10
599.28125
20
1174.6381694444444
30
0
11
604.04375000000005
21
1174.6381694444444
31
0
0
LINE
5
156
100
AcDbEntity
8
0
100
AcDbLine
10
871.12086944444468
20
245.95102222222192
30
0
11
861.5958694444447
21
245.95102222222192
31
0
0
LINE
5
157
100
AcDbEntity
8
0
100
AcDbLine
10
1062.0375000000001
20
257.80400277777755
30
0
11
1062.0375000000001
21
275.26650277777759
31
0
0
LINE
5
158
100
AcDbEntity
8
0
100
AcDbLine
10
646.90625
20
1174.6381694444444
30
0
11
656.43124999999998
21
1174.6381694444444
31
0
0
LINE
5
159
100
AcDbEntity
8
0
100
AcDbLine
10
699.29375000000027
20
1174.6381694444444
30
0
11
704.05625000000032
21
1174.6381694444444
31
0
0
LINE
5
160
100
AcDbEntity
8
0
100
AcDbLine
10
618.33125000000007
20
1174.6381694444444
30
0
11
627.85625000000005
21
1174.6381694444444
31
0
0
LINE
5
161
100
AcDbEntity
8
0
100
AcDbLine
10
604.04375000000005
20
1174.6381694444444
30
0
11
613.56875000000002
21
1174.6381694444444
31
0
0
LINE
5
162
100
AcDbEntity
8
0
100
AcDbLine
10
685.00625000000025
20
1174.6381694444444
30
0
11
689.76875000000018
21
1174.6381694444444
31
0
0
LINE
5
163
100
AcDbEntity
8
0
100
AcDbLine
10
689.76875000000018
20
1174.6381694444444
30
0
11
699.29375000000027
21
1174.6381694444444
31
0
0
LINE
5
164
100
AcDbEntity
8
0
100
AcDbLine
10
632.61875000000009
20
1174.6381694444444
30
0
11
642.14375000000007
21
1174.6381694444444
31
0
0
LINE
5
165
100
AcDbEntity
8
0
100
AcDbLine
10
784.22500000000025
20
418.98816944444462
30
0
11
534.98749999999995
21
418.98816944444462
31
0
0
LINE
5
166
100
AcDbEntity
8
0
100
AcDbLine
10
675.48125000000027
20
1174.6381694444444
30
0
11
685.00625000000025
21
1174.6381694444444
31
0
0
LINE
5
167
100
AcDbEntity
8
0
100
AcDbLine
10
871.53750000000014
20
241.18816944444475
30
0
11
1062.0375000000001
21
257.85480277777759
31
0
0
LINE
5
168
100
AcDbEntity
8
0
100
AcDbLine
10
727.8687500000002
20
1174.6381694444444
30
0
11
732.63125000000036
21
1174.6381694444444
31
0
0
LINE
5
169
100
AcDbEntity
8
0
100
AcDbLine
10
656.43124999999998
20
1174.6381694444444
30
0
11
661.19375000000036
21
1174.6381694444444
31
0
0
LINE
5
170
100
AcDbEntity
8
0
100
AcDbLine
10
627.85625000000005
20
1174.6381694444444
30
0
11
632.61875000000009
21
1174.6381694444444
31
0
0
LINE
5
171
100
AcDbEntity
8
0
100
AcDbLine
10
613.56875000000002
20
1174.6381694444444
30
0
11
618.33125000000007
21
1174.6381694444444
31
0
0
LINE
5
172
100
AcDbEntity
8
0
100
AcDbLine
10
670.71875000000034
20
1174.6381694444444
30
0
11
675.48125000000027
21
1174.6381694444444
31
0
0
LINE
5
173
100
AcDbEntity
8
0
100
AcDbLine
10
661.19375000000036
20
1174.6381694444444
30
0
11
670.71875000000034
21
1174.6381694444444
31
0
0
LINE
5
174
100
AcDbEntity
8
0
100
AcDbLine
10
917.57500000000027
20
1219.0885222222223
30
0
11
922.33750000000009
21
1219.0885222222223
31
0
0
LINE
5
175
100
AcDbEntity
8
0
100
AcDbLine
10
713.5812500000003
20
1174.6381694444444
30
0
11
718.34375000000023
21
1174.6381694444444
31
0
0
LINE
5
176
100
AcDbEntity
8
0
100
AcDbLine
10
732.63125000000036
20
1174.6381694444444
30
0
11
742.15625000000034
21
1174.6381694444444
31
0
0
LINE
5
177
100
AcDbEntity
8
0
100
AcDbLine
10
718.34375000000023
20
1174.6381694444444
30
0
11
727.8687500000002
21
1174.6381694444444
31
0
0
LINE
5
178
100
AcDbEntity
8
0
100
AcDbLine
10
789.78125000000034
20
1174.6381694444444
30
0
11
799.30625000000032
21
1174.6381694444444
31
0
0
LINE
5
179
100
AcDbEntity
8
0
100
AcDbLine
10
922.33750000000009
20
1219.0885222222223
30
0
11
922.33750000000009
21
1231.7885222222221
31
0
0
LINE
5
180
100
AcDbEntity
8
0
100
AcDbLine
10
813.59375000000011
20
1174.6381694444444
30
0
11
818.35625000000027
21
1174.6381694444444
31
0
0
LINE
5
181
100
AcDbEntity
8
0
100
AcDbLine
10
917.57500000000027
20
1244.4885222222222
30
0
11
917.57500000000027
21
1219.0885222222223
31
0
0
LINE
5
182
100
AcDbEntity
8
0
100
AcDbLine
10
742.15625000000034
20
1174.6381694444444
30
0
11
746.91875000000027
21
1174.6381694444444
31
0
0
LINE
5
183
100
AcDbEntity
8
0
100
AcDbLine
10
785.0187500000003
20
1174.6381694444444
30
0
11
789.78125000000034
21
1174.6381694444444
31
0
0
LINE
5
184
100
AcDbEntity
8
0
100
AcDbLine
10
932.42835555555553
20
1169.8756694444446
30
0
11
866.7750000000002
21
1169.8756694444446
31
0
0
LINE
5
185
100
AcDbEntity
8
0
100
AcDbLine
10
669.92500000000018
20
322.15066944444465
30
0
11
669.92500000000018
21
241.18781666666692
31
0
0
LINE
5
186
100
AcDbEntity
8
0
100
AcDbLine
10
704.05625000000032
20
1174.6381694444444
30
0
11
713.5812500000003
21
1174.6381694444444
31
0
0
LINE
5
187
100
AcDbEntity
8
0
100
AcDbLine
10
917.57500000000027
20
1200.0385222222221
30
0
11
917.57500000000027
21
1179.4006694444445
31
0
0
SPLINE
5
188
100
AcDbEntity
8
0
100
AcDbSpline
70
0
71
3
72
8
73
4
74
0
42
0.000000001
43
0.0000000001
44
0.0000000001
40
0
40
0
40
0
40
0
40
1
40
1
40
1
40
1
10
784.22500000000025
20
1104.7881694444445
30
0
10
794.78116944444434
20
1104.7546555555555
30
0
10
803.24148611111104
20
1096.2943388888889
30
0
10
803.27500000000032
20
1085.7381694444443
30
0
0
LINE
5
189
100
AcDbEntity
8
0
100
AcDbLine
10
803.27500000000032
20
1085.7381694444443
30
0
11
803.27500000000032
21
438.03816944444463
31
0
0
SPLINE
5
190
100
AcDbEntity
8
0
100
AcDbSpline
70
0
71
3
72
8
73
4
74
0
42
0.000000001
43
0.0000000001
44
0.0000000001
40
2
40
2
40
2
40
2
40
3
40
3
40
3
40
3
10
803.27500000000032
20
438.03816944444463
30
0
10
803.24113333333321
20
427.48199999999997
30
0
10
794.78116944444434
20
419.02203611111128
30
0
10
784.22500000000025
20
418.98816944444462
30
0
0
LINE
5
191
100
AcDbEntity
8
0
100
AcDbLine
10
761.2062500000003
20
1174.6381694444444
30
0
11
770.73125000000027
21
1174.6381694444444
31
0
0
LWPOLYLINE
5
192
100
AcDbEntity
8
0
100
AcDbPolyline
90
4
70
1
43
0.0
10
897.59931111111155
20
1042.8756694444444
10
902.07782500000019
20
1068.2756694444442
10
921.12782500000026
20
1068.2756694444442
10
925.60669166666696
20
1042.8756694444444
0
LINE
5
193
100
AcDbEntity
8
0
100
AcDbLine
10
922.33750000000009
20
1200.0381694444445
30
0
11
922.33750000000009
21
1187.3385222222223
31
0
0
SPLINE
5
194
100
AcDbEntity
8
0
100
AcDbSpline
70
0
71
3
72
8
73
4
74
0
42
0.000000001
43
0.0000000001
44
0.0000000001
40
0
40
0
40
0
40
0
40
1
40
1
40
1
40
1
10
932.42835555555553
20
1169.8756694444446
30
0
10
938.81539722222226
20
1169.862616666667
30
0
10
944.16668333333303
20
1165.1731416666667
30
0
10
945.01828888888906
20
1158.8428972222223
30
0
0
LINE
5
195
100
AcDbEntity
8
0
100
AcDbLine
10
945.01828888888906
20
1158.8428972222223
30
0
11
1062.0375000000001
21
275.26650277777759
31
0
0
LINE
5
196
100
AcDbEntity
8
0
100
AcDbLine
10
868.36250000000018
20
1179.4006694444445
30
0
11
917.57500000000027
21
1179.4006694444445
31
0
0
LINE
5
197
100
AcDbEntity
8
0
100
AcDbLine
10
866.7750000000002
20
1169.8756694444446
30
0
11
866.7750000000002
21
245.95102222222195
31
0
0
LINE
5
198
100
AcDbEntity
8
0
100
AcDbLine
10
270.66874999999999
20
1174.6381694444444
30
0
11
265.90625
21
1174.6381694444444
31
0
0
LINE
5
199
100
AcDbEntity
8
0
100
AcDbLine
10
284.95625000000001
20
1174.6381694444444
30
0
11
280.19375000000002
21
1174.6381694444444
31
0
0
LINE
5
200
100
AcDbEntity
8
0
100
AcDbLine
10
313.53125
20
1174.6381694444444
30
0
11
308.76875000000001
21
1174.6381694444444
31
0
0
LINE
5
201
100
AcDbEntity
8
0
100
AcDbLine
10
280.19375000000002
20
1174.6381694444444
30
0
11
270.66874999999999
21
1174.6381694444444
31
0
0
LINE
5
202
100
AcDbEntity
8
0
100
AcDbLine
10
256.38124999999997
20
1174.6381694444444
30
0
11
251.61875000000003
21
1174.6381694444444
31
0
0
LINE
5
203
100
AcDbEntity
8
0
100
AcDbLine
10
756.44375000000025
20
1174.6381694444444
30
0
11
761.2062500000003
21
1174.6381694444444
31
0
0
LWPOLYLINE
5
204
100
AcDbEntity
8
0
100
AcDbPolyline
90
4
70
1
43
0.0
10
236.02773611111115
20
169.75102222222199
10
240.50624999999999
20
195.151022222222
10
259.55625000000003
20
195.151022222222
10
264.03476388888873
20
169.75102222222199
0
LINE
5
205
100
AcDbEntity
8
0
100
AcDbLine
10
208.75624999999999
20
1174.6381694444444
30
0
11
201.61249999999998
21
1174.6381694444444
31
0
0
LINE
5
206
100
AcDbEntity
8
0
100
AcDbLine
10
237.33125000000001
20
1174.6381694444444
30
0
11
227.80625000000001
21
1174.6381694444444
31
0
0
LINE
5
207
100
AcDbEntity
8
0
100
AcDbLine
10
922.33750000000009
20
1200.0381694444445
30
0
11
935.03750000000025
21
1200.0381694444445
31
0
0
LINE
5
208
100
AcDbEntity
8
0
100
AcDbLine
10
775.49375000000032
20
1174.6381694444444
30
0
11
785.0187500000003
21
1174.6381694444444
31
0
0
LINE
5
209
100
AcDbEntity
8
0
100
AcDbLine
10
818.35625000000027
20
1174.6381694444444
30
0
11
827.88125000000025
21
1174.6381694444444
31
0
0
LINE
5
210
100
AcDbEntity
8
0
100
AcDbLine
10
251.61875000000003
20
1174.6381694444444
30
0
11
242.09375
21
1174.6381694444444
31
0
0
LINE
5
211
100
AcDbEntity
8
0
100
AcDbLine
10
400.05000000000001
20
241.18816944444475
30
0
11
304.80000000000001
21
241.18816944444475
31
0
0
LINE
5
212
100
AcDbEntity
8
0
100
AcDbLine
10
868.36250000000018
20
1174.6381694444444
30
0
11
866.7750000000002
21
1169.8756694444446
31
0
0
LINE
5
213
100
AcDbEntity
8
0
100
AcDbLine
10
922.33750000000009
20
1231.7885222222221
30
0
11
928.68750000000023
21
1231.7885222222221
31
0
0
SPLINE
5
214
100
AcDbEntity
8
0
100
AcDbSpline
70
0
71
3
72
8
73
4
74
0
42
0.000000001
43
0.0000000001
44
0.0000000001
40
1
40
1
40
1
40
1
40
2
40
2
40
2
40
2
10
928.68750000000023
20
1231.7885222222221
30
0
10
932.2061055555555
20
1231.7772333333332
30
0
10
935.0262111111108
20
1228.9571277777777
30
0
10
935.03750000000025
20
1225.4385222222222
30
0
0
LINE
5
215
100
AcDbEntity
8
0
100
AcDbLine
10
935.03750000000025
20
1225.4385222222222
30
0
11
935.03750000000025
21
1209.5635222222222
31
0
0
LINE
5
216
100
AcDbEntity
8
0
100
AcDbLine
10
242.09375
20
1174.6381694444444
30
0
11
237.33125000000001
21
1174.6381694444444
31
0
0
LINE
5
217
100
AcDbEntity
8
0
100
AcDbLine
10
323.05624999999998
20
1174.6381694444444
30
0
11
313.53125
21
1174.6381694444444
31
0
0
SPLINE
5
218
100
AcDbEntity
8
0
100
AcDbSpline
70
0
71
3
72
8
73
4
74
0
42
0.000000001
43
0.0000000001
44
0.0000000001
40
0
40
0
40
0
40
0
40
1
40
1
40
1
40
1
10
650.875
20
355.48816944444468
30
0
10
661.43116944444432
20
355.45465555555541
30
0
10
669.89148611111091
20
346.99433888888876
30
0
10
669.92500000000018
20
336.43816944444467
30
0
0
LINE
5
219
100
AcDbEntity
8
0
100
AcDbLine
10
669.92500000000018
20
336.43816944444467
30
0
11
669.92500000000018
21
322.15066944444465
31
0
0
LINE
5
220
100
AcDbEntity
8
0
100
AcDbLine
10
827.88125000000025
20
1174.6381694444444
30
0
11
832.64375000000018
21
1174.6381694444444
31
0
0
LINE
5
221
100
AcDbEntity
8
0
100
AcDbLine
10
770.73125000000027
20
1174.6381694444444
30
0
11
775.49375000000032
21
1174.6381694444444
31
0
0
LINE
5
222
100
AcDbEntity
8
0
100
AcDbLine
10
265.90625
20
1174.6381694444444
30
0
11
256.38124999999997
21
1174.6381694444444
31
0
0
LINE
5
223
100
AcDbEntity
8
0
100
AcDbLine
10
213.51875000000001
20
1174.6381694444444
30
0
11
208.75624999999999
21
1174.6381694444444
31
0
0
SPLINE
5
224
100
AcDbEntity
8
0
100
AcDbSpline
70
0
71
3
72
8
73
4
74
0
42
0.000000001
43
0.0000000001
44
0.0000000001
40
0
40
0
40
0
40
0
40
1
40
1
40
1
40
1
10
137.54664444444433
20
1169.8756694444446
30
0
10
131.15960277777785
20
1169.8622638888892
30
0
10
125.80831666666674
20
1165.1731416666667
30
0
10
124.95671111111096
20
1158.8428972222223
30
0
0
LINE
5
225
100
AcDbEntity
8
0
100
AcDbLine
10
124.95671111111096
20
1158.8428972222223
30
0
11
7.9375000000000107
21
275.26650277777776
31
0
0
LINE
5
226
100
AcDbEntity
8
0
100
AcDbLine
10
534.98749999999995
20
1174.6381694444444
30
0
11
527.84375
21
1174.6381694444444
31
0
0
LWPOLYLINE
5
227
100
AcDbEntity
8
0
100
AcDbPolyline
90
4
70
1
43
0.0
10
167.897175
20
1068.2756694444442
10
148.84717500000002
20
1068.2756694444442
10
144.3683083333334
20
1042.8756694444444
10
172.37568888888882
20
1042.8756694444444
0
LINE
5
228
100
AcDbEntity
8
0
100
AcDbLine
10
152.40000000000001
20
1244.4881694444443
30
0
11
152.40000000000001
21
1219.0881694444445
31
0
0
LINE
5
229
100
AcDbEntity
8
0
100
AcDbLine
10
198.4375
20
241.18816944444475
30
0
11
7.9374999999999929
21
257.85480277777759
31
0
0
LINE
5
230
100
AcDbEntity
8
0
100
AcDbLine
10
423.06874999999997
20
1174.6381694444444
30
0
11
413.54374999999999
21
1174.6381694444444
31
0
0
LINE
5
231
100
AcDbEntity
8
0
100
AcDbLine
10
523.08125000000007
20
1174.6381694444444
30
0
11
513.55625000000009
21
1174.6381694444444
31
0
0
LWPOLYLINE
5
232
100
AcDbEntity
8
0
100
AcDbPolyline
90
4
70
1
43
0.0
10
133.10164444444456
20
542.81352222222199
10
114.05164444444455
20
542.81352222222199
10
109.5727777777779
20
517.41352222222201
10
137.58015833333334
20
517.41352222222201
0
LINE
5
233
100
AcDbEntity
8
0
100
AcDbLine
10
298.44999999999999
20
141.17566944444471
30
0
11
298.44999999999999
21
245.95102222222192
31
0
0
LINE
5
234
100
AcDbEntity
8
0
100
AcDbLine
10
198.85413055555543
20
245.95102222222192
30
0
11
208.37913055555543
21
245.95102222222192
31
0
0
LINE
5
235
100
AcDbEntity
8
0
100
AcDbLine
10
337.34375
20
1174.6381694444444
30
0
11
327.81875000000002
21
1174.6381694444444
31
0
0
LINE
5
236
100
AcDbEntity
8
0
100
AcDbLine
10
7.9374999999999929
20
257.85480277777759
30
0
11
0
21
167.12882500000006
31
0
0
LINE
5
237
100
AcDbEntity
8
0
100
AcDbLine
10
351.63125000000002
20
1174.6381694444444
30
0
11
342.10624999999999
21
1174.6381694444444
31
0
0
LINE
5
238
100
AcDbEntity
8
0
100
AcDbLine
10
147.63749999999999
20
1219.0881694444445
30
0
11
147.63749999999999
21
1231.7881694444445
31
0
0
LINE
5
239
100
AcDbEntity
8
0
100
AcDbLine
10
137.54664444444433
20
1169.8756694444446
30
0
11
203.19999999999999
21
1169.8756694444446
31
0
0
LINE
5
240
100
AcDbEntity
8
0
100
AcDbLine
10
484.98125000000005
20
1174.6381694444444
30
0
11
480.21875
21
1174.6381694444444
31
0
0
LINE
5
241
100
AcDbEntity
8
0
100
AcDbLine
10
201.61249999999998
20
1179.4006694444445
30
0
11
152.40000000000001
21
1179.4006694444445
31
0
0
LINE
5
242
100
AcDbEntity
8
0
100
AcDbLine
10
201.61249999999998
20
1179.4006694444445
30
0
11
201.61249999999998
21
1174.6381694444444
31
0
0
SPLINE
5
243
100
AcDbEntity
8
0
100
AcDbSpline
70
0
71
3
72
8
73
4
74
0
42
0.000000001
43
0.0000000001
44
0.0000000001
40
0
40
0
40
0
40
0
40
1
40
1
40
1
40
1
10
419.10000000000002
20
355.48816944444468
30
0
10
408.54383055555559
20
355.45465555555541
30
0
10
400.08386666666689
20
346.99433888888876
30
0
10
400.05000000000001
20
336.43816944444467
30
0
0
LINE
5
244
100
AcDbEntity
8
0
100
AcDbLine
10
400.05000000000001
20
336.43816944444467
30
0
11
400.05000000000001
21
322.15066944444465
31
0
0
LINE
5
245
100
AcDbEntity
8
0
100
AcDbLine
10
437.35624999999999
20
1174.6381694444444
30
0
11
427.83124999999995
21
1174.6381694444444
31
0
0
LWPOLYLINE
5
246
100
AcDbEntity
8
0
100
AcDbPolyline
90
4
70
1
43
0.0
10
180.97499999999999
20
1131.7756694444445
10
155.57500000000002
20
1131.7756694444445
10
155.57500000000002
20
1120.6631694444445
10
180.97499999999999
20
1120.6631694444445
0
LINE
5
247
100
AcDbEntity
8
0
100
AcDbLine
10
201.61249999999998
20
1174.6381694444444
30
0
11
203.19999999999999
21
1169.8756694444446
31
0
0
LINE
5
248
100
AcDbEntity
8
0
100
AcDbLine
10
198.85413055555543
20
245.95102222222192
30
0
11
189.68755277777788
21
141.17566944444471
31
0
0
LINE
5
249
100
AcDbEntity
8
0
100
AcDbLine
10
494.50625000000002
20
1174.6381694444444
30
0
11
484.98125000000005
21
1174.6381694444444
31
0
0
LINE
5
250
100
AcDbEntity
8
0
100
AcDbLine
10
399.25625000000002
20
1174.6381694444444
30
0
11
394.49375000000003
21
1174.6381694444444
31
0
0
LINE
5
251
100
AcDbEntity
8
0
100
AcDbLine
10
394.49375000000003
20
1174.6381694444444
30
0
11
384.96875
21
1174.6381694444444
31
0
0
LINE
5
252
100
AcDbEntity
8
0
100
AcDbLine
10
508.79375000000005
20
1174.6381694444444
30
0
11
499.26875000000001
21
1174.6381694444444
31
0
0
LINE
5
253
100
AcDbEntity
8
0
100
AcDbLine
10
380.20625000000001
20
1174.6381694444444
30
0
11
370.68125000000003
21
1174.6381694444444
31
0
0
LINE
5
254
100
AcDbEntity
8
0
100
AcDbLine
10
456.40625
20
1174.6381694444444
30
0
11
451.64375000000001
21
1174.6381694444444
31
0
0
LINE
5
255
100
AcDbEntity
8
0
100
AcDbLine
10
470.69375000000002
20
1174.6381694444444
30
0
11
465.93124999999998
21
1174.6381694444444
31
0
0
LINE
5
256
100
AcDbEntity
8
0
100
AcDbLine
10
527.84375
20
1174.6381694444444
30
0
11
523.08125000000007
21
1174.6381694444444
31
0
0
LINE
5
257
100
AcDbEntity
8
0
100
AcDbLine
10
203.19999999999999
20
1169.8756694444446
30
0
11
203.19999999999999
21
245.95102222222195
31
0
0
LINE
5
258
100
AcDbEntity
8
0
100
AcDbLine
10
400.05000000000001
20
322.15066944444465
30
0
11
400.05000000000001
21
241.18781666666692
31
0
0
LINE
5
259
100
AcDbEntity
8
0
100
AcDbLine
10
147.63749999999999
20
1200.0381694444445
30
0
11
147.63749999999999
21
1187.3381694444445
31
0
0
LINE
5
260
100
AcDbEntity
8
0
100
AcDbLine
10
152.40000000000001
20
1200.0381694444445
30
0
11
152.40000000000001
21
1179.4006694444445
31
0
0
LINE
5
261
100
AcDbEntity
8
0
100
AcDbLine
10
152.40000000000001
20
1219.0881694444445
30
0
11
152.40000000000001
21
1200.0381694444445
31
0
0
LINE
5
262
100
AcDbEntity
8
0
100
AcDbLine
10
207.96250000000001
20
245.95102222222192
30
0
11
207.96250000000001
21
233.25066944444472
31
0
0
LINE
5
263
100
AcDbEntity
8
0
100
AcDbLine
10
408.78125
20
1174.6381694444444
30
0
11
399.25625000000002
21
1174.6381694444444
31
0
0
LINE
5
264
100
AcDbEntity
8
0
100
AcDbLine
10
442.11874999999998
20
1174.6381694444444
30
0
11
437.35624999999999
21
1174.6381694444444
31
0
0
LINE
5
265
100
AcDbEntity
8
0
100
AcDbLine
10
480.21875
20
1174.6381694444444
30
0
11
470.69375000000002
21
1174.6381694444444
31
0
0
LINE
5
266
100
AcDbEntity
8
0
100
AcDbLine
10
207.96250000000001
20
233.25066944444472
30
0
11
207.96250000000001
21
141.17566944444471
31
0
0
LINE
5
267
100
AcDbEntity
8
0
100
AcDbLine
10
419.10000000000002
20
355.48816944444468
30
0
11
534.98749999999995
21
355.48816944444468
31
0
0
LINE
5
268
100
AcDbEntity
8
0
100
AcDbLine
10
152.40000000000001
20
1219.0881694444445
30
0
11
147.63749999999999
21
1219.0881694444445
31
0
0
LINE
5
269
100
AcDbEntity
8
0
100
AcDbLine
10
152.40000000000001
20
1244.4881694444443
30
0
11
534.98749999999995
21
1244.4881694444443
31
0
0
LINE
5
270
100
AcDbEntity
8
0
100
AcDbLine
10
513.55625000000009
20
1174.6381694444444
30
0
11
508.79375000000005
21
1174.6381694444444
31
0
0
LINE
5
271
100
AcDbEntity
8
0
100
AcDbLine
10
327.81875000000002
20
1174.6381694444444
30
0
11
323.05624999999998
21
1174.6381694444444
31
0
0
LINE
5
272
100
AcDbEntity
8
0
100
AcDbLine
10
499.26875000000001
20
1174.6381694444444
30
0
11
494.50625000000002
21
1174.6381694444444
31
0
0
LINE
5
273
100
AcDbEntity
8
0
100
AcDbLine
10
465.93124999999998
20
1174.6381694444444
30
0
11
456.40625
21
1174.6381694444444
31
0
0
LINE
5
274
100
AcDbEntity
8
0
100
AcDbLine
10
384.96875
20
1174.6381694444444
30
0
11
380.20625000000001
21
1174.6381694444444
31
0
0
LINE
5
275
100
AcDbEntity
8
0
100
AcDbLine
10
201.61249999999998
20
1244.4881694444443
30
0
11
201.61249999999998
21
1179.4006694444445
31
0
0
LINE
5
276
100
AcDbEntity
8
0
100
AcDbLine
10
922.33750000000009
20
1219.0885222222223
30
0
11
935.03750000000025
21
1219.0885222222223
31
0
0
LINE
5
277
100
AcDbEntity
8
0
100
AcDbLine
10
370.68125000000003
20
1174.6381694444444
30
0
11
365.91875000000005
21
1174.6381694444444
31
0
0
LINE
5
278
100
AcDbEntity
8
0
100
AcDbLine
10
342.10624999999999
20
1174.6381694444444
30
0
11
337.34375
21
1174.6381694444444
31
0
0
LINE
5
279
100
AcDbEntity
8
0
100
AcDbLine
10
365.91875000000005
20
1174.6381694444444
30
0
11
356.39375000000001
21
1174.6381694444444
31
0
0
LINE
5
280
100
AcDbEntity
8
0
100
AcDbLine
10
285.75
20
1104.7881694444445
30
0
11
534.98749999999995
21
1104.7881694444445
31
0
0
LINE
5
281
100
AcDbEntity
8
0
100
AcDbLine
10
427.83124999999995
20
1174.6381694444444
30
0
11
423.06874999999997
21
1174.6381694444444
31
0
0
LINE
5
282
100
AcDbEntity
8
0
100
AcDbLine
10
400.05000000000001
20
241.18816944444475
30
0
11
534.98749999999995
21
241.18781666666692
31
0
0
LINE
5
283
100
AcDbEntity
8
0
100
AcDbLine
10
451.64375000000001
20
1174.6381694444444
30
0
11
442.11874999999998
21
1174.6381694444444
31
0
0
LINE
5
284
100
AcDbEntity
8
0
100
AcDbLine
10
356.39375000000001
20
1174.6381694444444
30
0
11
351.63125000000002
21
1174.6381694444444
31
0
0
LINE
5
285
100
AcDbEntity
8
0
100
AcDbLine
10
147.63749999999999
20
1187.3381694444445
30
0
11
141.28749999999999
21
1187.3381694444445
31
0
0
SPLINE
5
286
100
AcDbEntity
8
0
100
AcDbSpline
70
0
71
3
72
8
73
4
74
0
42
0.000000001
43
0.0000000001
44
0.0000000001
40
1
40
1
40
1
40
1
40
2
40
2
40
2
40
2
10
141.28749999999999
20
1187.3381694444445
30
0
10
137.76889444444436
20
1187.3494583333334
30
0
10
134.94878888888894
20
1190.1695638888893
30
0
10
134.9375
20
1193.6881694444444
30
0
0
LINE
5
287
100
AcDbEntity
8
0
100
AcDbLine
10
134.9375
20
1193.6881694444444
30
0
11
134.9375
21
1209.5635222222222
31
0
0
LINE
5
288
100
AcDbEntity
8
0
100
AcDbLine
10
7.9375
20
257.80400277777755
30
0
11
7.9375000000000107
21
275.26650277777776
31
0
0
LINE
5
289
100
AcDbEntity
8
0
100
AcDbLine
10
304.80000000000001
20
241.18816944444475
30
0
11
304.80000000000001
21
245.95066944444471
31
0
0
LINE
5
290
100
AcDbEntity
8
0
100
AcDbLine
10
0
20
156.56101388888891
30
0
11
175.85548888888897
21
141.17566944444471
31
0
0
LINE
5
291
100
AcDbEntity
8
0
100
AcDbLine
10
147.63749999999999
20
1219.0881694444445
30
0
11
134.9375
21
1219.0881694444445
31
0
0
LINE
5
292
100
AcDbEntity
8
0
100
AcDbLine
10
152.40000000000001
20
1200.0381694444445
30
0
11
147.63749999999999
21
1200.0381694444445
31
0
0
LINE
5
293
100
AcDbEntity
8
0
100
AcDbLine
10
147.63749999999999
20
1231.7881694444445
30
0
11
141.28749999999999
21
1231.7881694444445
31
0
0
SPLINE
5
294
100
AcDbEntity
8
0
100
AcDbSpline
70
0
71
3
72
8
73
4
74
0
42
0.000000001
43
0.0000000001
44
0.0000000001
40
1
40
1
40
1
40
1
40
2
40
2
40
2
40
2
10
141.28749999999999
20
1231.7881694444445
30
0
10
137.76889444444436
20
1231.7772333333332
30
0
10
134.94878888888894
20
1228.9571277777777
30
0
10
134.9375
20
1225.4385222222222
30
0
0
LINE
5
295
100
AcDbEntity
8
0
100
AcDbLine
10
134.9375
20
1225.4385222222222
30
0
11
134.9375
21
1209.5635222222222
31
0
0
SPLINE
5
296
100
AcDbEntity
8
0
100
AcDbSpline
70
0
71
3
72
8
73
4
74
0
42
0.000000001
43
0.0000000001
44
0.0000000001
40
0
40
0
40
0
40
0
40
1
40
1
40
1
40
1
10
285.75
20
1104.7881694444445
30
0
10
275.19383055555556
20
1104.7546555555555
30
0
10
266.73351388888904
20
1096.2943388888889
30
0
10
266.70000000000005
20
1085.7381694444443
30
0
0
LINE
5
297
100
AcDbEntity
8
0
100
AcDbLine
10
266.70000000000005
20
1085.7381694444443
30
0
11
266.70035277777782
21
438.03816944444463
31
0
0
SPLINE
5
298
100
AcDbEntity
8
0
100
AcDbSpline
70
0
71
3
72
8
73
4
74
0
42
0.000000001
43
0.0000000001
44
0.0000000001
40
2
40
2
40
2
40
2
40
3
40
3
40
3
40
3
10
266.70035277777782
20
438.03816944444463
30
0
10
266.73386666666681
20
427.48199999999997
30
0
10
275.1941833333334
20
419.02203611111128
30
0
10
285.75035277777783
20
418.98816944444462
30
0
0
LINE
5
299
100
AcDbEntity
8
0
100
AcDbLine
10
147.63749999999999
20
1200.0381694444445
30
0
11
134.9375
21
1200.0381694444445
31
0
0
LINE
5
300
100
AcDbEntity
8
0
100
AcDbLine
10
298.44999999999999
20
245.95102222222192
30
0
11
208.37913055555543
21
245.95102222222192
31
0
0
LINE
5
301
100
AcDbEntity
8
0
100
AcDbLine
10
868.36250000000018
20
1244.4881694444443
30
0
11
868.36250000000018
21
1179.4006694444445
31
0
0
LINE
5
302
100
AcDbEntity
8
0
100
AcDbLine
10
413.54374999999999
20
1174.6381694444444
30
0
11
408.78125
21
1174.6381694444444
31
0
0
LINE
5
303
100
AcDbEntity
8
0
100
AcDbLine
10
285.75035277777783
20
418.98816944444462
30
0
11
534.98749999999995
21
418.98816944444462
31
0
0
ENDSEC
0
SECTION
2
OBJECTS
0
DICTIONARY
5
C
100
AcDbDictionary
3
ACAD_GROUP
350
D
3
ACAD_MLINESTYLE
350
17
0
DICTIONARY
5
D
100
AcDbDictionary
0
DICTIONARY
5
1A
330
C
100
AcDbDictionary
0
DICTIONARY
5
17
100
AcDbDictionary
0
ENDSEC
0
EOF
